<?xml version="1.0" encoding="utf-8"?>
<!-- Generator: Adobe Illustrator 21.0.2, SVG Export Plug-In . SVG Version: 6.00 Build 0)  -->
<svg version="1.1" id="Layer_1" xmlns="http://www.w3.org/2000/svg" xmlns:xlink="http://www.w3.org/1999/xlink" x="0px" y="0px"
	 viewBox="0 0 165.5 22.1" style="enable-background:new 0 0 165.5 22.1;" xml:space="preserve">
<style type="text/css">
	.st0{display:none;fill:#FBAE17;}
	.st1{fill:#0079C0;}
</style>
<title>Logo_SharafDG</title>
<rect x="-16.2" y="-15.5" class="st0" width="197" height="53"/>
<path class="st1" d="M13.5,8.7c-2.1-0.8-4.3-1.5-6.4-2C5.6,6.3,3.9,5.6,3.9,4.6c0-0.8,0.4-1.5,1.1-1.9c0.8-0.4,1.7-0.6,2.6-0.5
	c1.2,0,2.4,0.3,3.5,0.9c1.1,0.8,2.1,1.7,2.9,2.8l0.8-0.4l-1.1-5L13.6,0l-0.5,0.2c-0.4,0.2-0.9,0.3-1.3,0.3c-0.2,0-1.8-0.2-2.3-0.3
	C8.9,0.2,8.4,0.2,7.8,0.2C6.1,0.1,4.4,0.5,2.9,1.2C1.3,2.1,0.4,3.8,0.4,5.5c0,2,1.2,3.6,3.7,4.6l6.4,2c2.1,0.8,3.1,1.8,3.1,3.3
	c0,1.3-0.6,2.6-1.7,3.3C10.8,19.6,9.4,20,8.1,20c-1.5,0-2.9-0.4-4.1-1.3c-1.2-1-2.3-2.2-3.2-3.5L0,15.6l1.2,5.8l0.1,0.7l0.5-0.5
	c0.3-0.2,0.6-0.3,1-0.3l2.6,0.4c0.9,0.1,1.7,0.2,2.6,0.2c2.3,0,4.5-0.7,6.3-2c1.8-1.2,2.9-3.3,2.9-5.5C17.2,11.9,15.7,9.7,13.5,8.7z
	"/>
<path class="st1" d="M33.3,20.5c-0.1-0.2-0.1-0.4-0.1-0.6v-7.4c0.1-1.3-0.2-2.5-0.9-3.6c-0.7-0.9-1.9-1.4-3-1.3
	c-1.2,0-2.5,0.3-3.5,0.9c-0.6,0.3-1.2,0.7-1.8,1.1V2.4l-0.6,0.1l-3.8,0.9v0.9c0.2,0,0.4,0.2,0.5,0.4c0,0.2,0,0.4,0,0.5V20
	c0,0.2,0,0.4-0.1,0.6c-0.1,0.2-0.2,0.3-0.4,0.4l0.2,0.8h4.3l0.2-0.8c-0.1-0.1-0.3-0.2-0.4-0.3c-0.1-0.1-0.1-0.2-0.1-0.3v-6.5
	c0-1,0.4-1.9,1.2-2.6c0.6-0.8,1.6-1.2,2.6-1.2c0.5,0,0.9,0.2,1.3,0.6c0.4,0.4,0.6,0.8,0.6,1.4v8c0,0.2,0,0.4-0.1,0.6
	c-0.1,0.2-0.2,0.3-0.4,0.4l0.2,0.8h4.3l0.2-0.8C33.5,20.8,33.4,20.7,33.3,20.5z"/>
<path class="st1" d="M50.1,20.9c-0.3-0.2-0.6-0.5-0.7-0.8c-0.1-0.2-0.1-0.3-0.1-0.5c0-0.2,0-0.5,0-0.7v-7.6c0.1-1.3-0.7-2.6-1.9-3.2
	c-1.1-0.5-2.4-0.7-3.6-0.7c-0.8,0-1.7,0.1-2.5,0.3c-0.7,0.1-1.4,0.3-2,0.6h-0.1c-0.1,0-0.2-0.1-0.3-0.1l0,0l0,0l-0.6-1L38,8.3
	l-0.7,4.4l0.8,0.2c0.4-1,1.1-1.9,2-2.5c0.9-0.6,1.9-0.9,3-0.9c0.6,0,1.2,0.1,1.8,0.4c0.4,0.2,0.7,0.7,0.6,1.1v1.2
	c-2.2,0.1-4.4,0.8-6.4,1.9c-2,1.1-3,2.5-3,4.1c0,1.2,0.6,2.3,1.6,2.9c1,0.6,2.1,1,3.2,0.9c1,0,2.1-0.3,3-0.8c0.7-0.3,1.3-0.7,1.8-1
	c0.1,0.1,0.2,0.3,0.2,0.4c0.3,0.8,0.7,1,1,1h4.3L50.1,20.9z M45.5,14.3v2.1c0,1-0.4,1.9-1.2,2.5c-0.7,0.7-1.6,1.1-2.6,1.1
	c-0.5,0-1-0.2-1.3-0.5c-0.3-0.3-0.5-0.7-0.5-1.2c0-1.1,0.7-2,2.1-2.8C43.1,14.7,44.3,14.3,45.5,14.3z"/>
<path class="st1" d="M60.8,7.7c-0.4,0-0.8,0.1-1.1,0.2c-0.5,0.1-1,0.3-1.5,0.5c-0.5,0.3-0.9,0.6-1.3,1c-0.2,0.2-0.4,0.4-0.6,0.6
	c-0.1-0.3-0.2-0.6-0.3-0.9c-0.1-0.3-0.2-0.6-0.4-0.8c-0.1-0.1-0.1-0.3-0.2-0.4l-0.2-0.3l-0.3,0.1l-3,0.6l-0.9,0.2L51.6,9
	c0.5,0.4,0.9,0.9,1.1,1.4c0.1,0.3,0.2,0.6,0.2,0.9c0,0.3,0.1,0.7,0.1,1v7.7c0,0.2,0,0.4-0.1,0.5c-0.1,0.1-0.2,0.3-0.4,0.3l0.2,0.8
	h5.5L56.9,21c-0.2-0.1-0.3-0.2-0.4-0.3c-0.1-0.2-0.1-0.4-0.1-0.5v-7c0-0.5,0.2-1,0.4-1.3c0.3-0.4,0.6-0.7,1-1
	c0.3-0.2,0.7-0.4,1.1-0.4c0.3,0,0.6,0.1,0.9,0.2c0.2,0.1,0.3,0.2,0.5,0.3l0.6,1l0.2-1.2l0.4-2.6l0.1-0.5L60.8,7.7z"/>
<path class="st1" d="M75.9,20.1c-0.1-0.2-0.1-0.3-0.2-0.5c0-0.2,0-0.4,0-0.7v-7.6c0.1-1.3-0.7-2.6-1.9-3.2c-1.1-0.5-2.4-0.7-3.6-0.7
	c-0.8,0-1.7,0.1-2.5,0.3c-0.7,0.1-1.4,0.3-2,0.6h-0.1c-0.1,0-0.2-0.1-0.3-0.1l0,0V8.1l-0.6-0.8l-0.2,1l-0.8,4.4l0.8,0.2
	c0.4-1,1.1-1.9,2-2.5c0.9-0.6,2-0.9,3.1-0.8c0.6,0,1.2,0.1,1.8,0.4c0.4,0.2,0.7,0.7,0.6,1.1v1.2c-2.2,0.1-4.4,0.8-6.3,1.9
	c-2,1.1-3,2.4-3,4.1c0,1.2,0.6,2.3,1.6,2.9c1,0.6,2.1,1,3.2,0.9c1,0,2.1-0.3,3-0.8c0.7-0.4,1.3-0.7,1.8-1c0.1,0.1,0.2,0.3,0.2,0.4
	c0.2,0.6,0.6,1,1,1h4.2l-1.2-0.8C76.3,20.7,76.1,20.4,75.9,20.1z M72,16.3c0,1-0.4,1.9-1.2,2.5c-0.7,0.7-1.6,1-2.6,1.1
	c-0.5,0-1-0.2-1.3-0.5c-0.3-0.3-0.5-0.7-0.5-1.2c0-1.1,0.7-2,2.1-2.8c1.1-0.6,2.3-0.9,3.5-1L72,16.3z M88.4,2.5
	c-0.5-0.3-1-0.5-1.5-0.6c-0.5-0.1-1.1-0.1-1.6-0.1c-1.5-0.1-3,0.4-4.1,1.4c-1.1,1.3-1.7,3-1.5,4.6c0,0,0,0.2-0.5,0.5
	c-0.2,0.2-0.5,0.3-0.7,0.4l0.1,0.8h0.9v10.2c0,0.3,0,0.5-0.1,0.7c-0.1,0.2-0.2,0.3-0.4,0.4l0.2,0.8h4.5l0.2-0.8
	c-0.2-0.1-0.3-0.2-0.4-0.4c-0.1-0.2-0.2-0.5-0.2-0.7V9.7h2.5l0.1-0.2l0.6-1.2l0.3-0.6h-3.4V6.1c0-0.7,0.2-1.4,0.6-1.9
	c0.3-0.4,0.8-0.7,1.3-0.7c0.4,0,0.8,0.1,1.2,0.3c0.3,0.4,0.6,0.8,0.7,1.3l0.4,1.2l0.4-1.2L88.6,3l0.1-0.4L88.4,2.5z"/>
<rect x="93.7" y="0.1" class="st1" width="9.6" height="5.3"/>
<rect x="155.9" y="9.6" class="st1" width="9.6" height="5.4"/>
<path class="st1" d="M128.2,10.7c0-10-15.1-10.6-15.1-10.6H105v5.3h7.4c6.8,0,6.4,5.8,6.4,5.8c-0.1,5.2-6.9,5.3-6.9,5.3h-8.7V7.1
	h-9.6v14.5h17c3,0,6.2-0.3,6.2-0.3C128.7,19.1,128.2,10.7,128.2,10.7z"/>
<path class="st1" d="M165.5,0.1v5.3h-17.2c0,0-7.9-0.3-7.9,5.5c0,0-0.4,5.6,7.7,5.6h17.4v5.1h-18.2c0,0-16.5,0.1-16.5-11.1
	c0,0-0.3-9.6,14.4-10.3H165.5z"/>
</svg>
